<?xml version="1.0" encoding="UTF-8" standalone="no"?>
<!-- Created with Inkscape (http://www.inkscape.org/) -->

<svg
   xmlns:dc="http://purl.org/dc/elements/1.1/"
   xmlns:cc="http://creativecommons.org/ns#"
   xmlns:rdf="http://www.w3.org/1999/02/22-rdf-syntax-ns#"
   xmlns:svg="http://www.w3.org/2000/svg"
   xmlns="http://www.w3.org/2000/svg"
   xmlns:sodipodi="http://sodipodi.sourceforge.net/DTD/sodipodi-0.dtd"
   xmlns:inkscape="http://www.inkscape.org/namespaces/inkscape"
   width="210mm"
   height="297mm"
   id="svg2"
   version="1.1"
   inkscape:version="0.48.4 r9939"
   sodipodi:docname="Logo_Neu2.svg">
  <defs
     id="defs4" />
  <sodipodi:namedview
     id="base"
     pagecolor="#ffffff"
     bordercolor="#666666"
     borderopacity="1.0"
     inkscape:pageopacity="0.0"
     inkscape:pageshadow="2"
     inkscape:zoom="0.45254832"
     inkscape:cx="326.49163"
     inkscape:cy="470.46654"
     inkscape:document-units="px"
     inkscape:current-layer="layer1"
     showgrid="false"
     inkscape:snap-to-guides="false"
     inkscape:window-width="1410"
     inkscape:window-height="852"
     inkscape:window-x="75"
     inkscape:window-y="34"
     inkscape:window-maximized="0" />
  <metadata
     id="metadata7">
    <rdf:RDF>
      <cc:Work
         rdf:about="">
        <dc:format>image/svg+xml</dc:format>
        <dc:type
           rdf:resource="http://purl.org/dc/dcmitype/StillImage" />
        <dc:title />
      </cc:Work>
    </rdf:RDF>
  </metadata>
  <g
     inkscape:label="Ebene 1"
     inkscape:groupmode="layer"
     id="layer1">
    <path
       transform="matrix(0.71514244,0,0,1.183871,1722.8971,-392.05898)"
       d="m -3632.761,1291.0107 a 1473.8757,1370.0194 0 1 1 -2947.7515,0 1473.8757,1370.0194 0 1 1 2947.7515,0 z"
       sodipodi:ry="1370.0194"
       sodipodi:rx="1473.8757"
       sodipodi:cy="1291.0107"
       sodipodi:cx="-5106.6367"
       id="path4018"
       style="opacity:0.13931891;color:#000000;fill:#ffffff;fill-opacity:1;fill-rule:nonzero;stroke:#ff0000;stroke-width:0;stroke-linecap:butt;stroke-linejoin:miter;stroke-miterlimit:4;stroke-opacity:1;stroke-dasharray:none;stroke-dashoffset:0;marker:none;visibility:visible;display:inline;overflow:visible;enable-background:accumulate"
       sodipodi:type="arc" />
    <path
       inkscape:export-filename="/media/robert/INTENSO/GFX/AWRI/LOGO/Lo.svg.png"
       inkscape:export-ydpi="139.05696"
       inkscape:export-xdpi="139.05696"
       inkscape:connector-curvature="0"
       id="path3111"
       d="m 370.0682,129.03345 c -196.75011,0 -356.251327,165.16854 -356.251238,368.88674 0,50.67448 2.063673,90.05918 19.920396,134.01173 l 0,-3.84092 0,-0.30611 0,-0.97408 0.146241,0 c 0.111151,-0.41236 0.275828,-0.8192 0.512111,-1.22461 0.01781,-0.0374 0.03028,-0.0739 0.04809,-0.11133 0.363465,-0.73094 0.961789,-1.44112 1.731202,-2.14311 l 16.238721,-51.01639 c -5.331118,-23.96625 -0.365781,-47.13904 -0.365781,-72.78092 0,-182.7571 143.098448,-330.89587 319.604598,-330.89587 176.50596,0 319.58009,148.13877 319.58009,330.89587 0,26.42937 1.44496,34.56383 1.36542,64.29217 l 13.72725,58.92062 c 0.22826,0.30477 0.43115,0.60856 0.58514,0.9185 0.009,0.0169 0.016,0.0383 0.024,0.0552 0.25971,0.43347 0.45129,0.86605 0.56074,1.30815 l 0.12193,0 0,0.94621 0,0.30619 0,0.7793 c 17.07894,-43.12774 18.70131,-79.64311 18.70131,-129.14106 0,-203.7182 -159.50113,-368.88675 -356.25124,-368.88675 z m 1.14597,74.92403 c -11.42506,0 -20.12195,29.70037 -21.01756,32.86976 l -98.57812,21.34718 -113.91454,52.65835 c 0,0 -28.1962,-3.99349 -31.20955,7.65387 -3.34181,12.91846 -7.715146,33.78818 15.72661,34.40049 L 44.39238,631.73705 c -0.769324,0.70199 -1.367737,1.41236 -1.731113,2.14303 -0.0187,0.0374 -0.03028,0.0739 -0.04809,0.11133 -0.236194,0.40568 -0.400871,0.81225 -0.511932,1.22461 l -0.14642,0 0,0.97417 0,0.3062 0,47.70414 0,0.3062 0,0.97417 0.121927,0 c 2.400954,9.56694 40.542519,17.14457 87.240248,17.14457 1.50783,0 2.99749,0.016 4.48636,0 44.62159,-0.46954 80.42009,-7.88721 82.75389,-17.14457 l 0.39009,0 0,-1.28037 0,-47.1475 0.65836,0.0552 -79.58424,-285.19565 -7.58289,0.72364 -3.55975,0.11133 c 2.59698,-0.19104 5.43541,-0.5725 8.60693,-1.19674 39.4849,-7.77117 56.16243,-51.63689 118.18154,-58.08565 27.94121,-10.89282 60.21755,-17.83232 96.35921,-21.23586 l 0,470.30695 c -62.76786,1.10393 -110.84767,6.58361 -112.76857,13.27596 l -0.14633,0 0,37.62901 0.4633,0 c -0.0125,0.0775 -0.0481,0.14526 -0.0481,0.22266 0,7.45009 57.19751,13.54332 129.08041,13.91605 2.31893,0.0125 4.62547,0 6.97335,0 75.13671,1.8e-4 136.05384,-6.22567 136.05384,-13.91605 0,-0.0775 -0.0125,-0.14518 -0.024,-0.22266 l 0.024,0 0,-37.62901 -0.4389,0 C 507.23302,748.978 457.10459,743.38816 392.37939,742.45282 l 0,-470.30704 c 36.37795,3.38359 68.85308,10.34019 96.94444,21.29161 62.01929,6.44868 78.69673,50.34227 118.18154,58.11344 3.27983,0.64553 6.20919,1.01353 8.87519,1.19674 l -4.04745,-0.13912 -7.36353,-0.72364 -78.34066,280.68685 -0.024,0 c -0.72621,0.85821 -1.1701,1.74875 -1.2923,2.64401 l -0.073,0 0,1.25248 0,47.73202 0,1.25249 0.39019,0 c 2.32623,9.25932 38.1274,16.70301 82.7538,17.17246 1.48904,0.016 2.97871,0 4.48636,0 46.73932,0 84.90031,-7.59367 87.24025,-17.17246 l 0.12202,0 0,-0.94629 0,-0.3062 0,-46.20129 0.12183,0 -0.12183,-0.44532 0,-1.08541 0,-0.3061 0,-0.94638 -0.12202,0 c -0.10937,-0.44185 -0.30103,-0.8746 -0.56074,-1.30807 -0.009,-0.0169 -0.0151,-0.0383 -0.024,-0.0552 -0.15416,-0.30994 -0.35687,-0.61382 -0.58514,-0.91841 L 620.7702,352.85934 c 23.4414,-0.61248 19.06878,-21.48202 15.72661,-34.40048 -3.01308,-11.64727 -31.20928,-7.626 -31.20946,-7.626 L 491.37281,258.14672 392.16083,236.66034 c -1.11693,-3.91636 -9.69367,-32.70277 -20.94452,-32.70277 z M 617.9885,352.83146 c 0.62237,0.0232 1.26452,0.057 1.85304,0.0552 l -1.85304,0.16699 0,-0.22265 z m -492.98775,0.0276 0,0.22266 -1.70689,-0.16699 c 0.5448,-2.7e-4 1.13342,-0.0347 1.70689,-0.0552 z m 484.45385,17.95167 0,246.843 c -29.46944,0.22025 -55.20064,3.45207 -70.22125,8.26618 L 609.4546,370.81074 z m -475.92012,0.0552 70.29455,255.35962 c -14.75387,-4.93603 -40.58661,-8.29503 -70.29455,-8.57229 l 0,-246.78733 z m -8.53373,7.20856 0,239.57877 c -28.470597,0.30495 -53.328719,3.43587 -68.197655,8.07131 L 125.00075,378.07452 z m 492.98775,0 68.27069,247.90053 c -14.62152,-4.73787 -39.57164,-7.96274 -68.27069,-8.32176 l 0,-239.57877 z M 48.951947,645.3462 c 25.25383,4.85783 54.256043,7.62608 85.143353,7.62608 27.47328,0 53.47336,-2.19335 76.65827,-6.09527 -14.36173,6.01734 -44.43955,10.15867 -79.26718,10.15867 -37.71451,0 -69.893145,-4.85347 -82.534443,-11.68948 z m 485.307333,0 c 25.25383,4.85774 54.25605,7.62608 85.14336,7.62608 27.47327,0 53.47336,-2.19335 76.65826,-6.09527 -14.36172,6.01734 -44.43963,10.15867 -79.26717,10.15867 -37.71469,0 -69.89315,-4.85347 -82.53445,-11.68948 z M 71.115567,709.27659 C 134.63057,810.50611 244.7937,866.77844 370.0682,866.77844 c 125.16824,0 235.24178,-56.16582 298.78199,-157.25132 -12.51269,2.19487 -28.04969,3.6628 -45.13192,4.11916 -58.48475,77.58772 -149.64447,120.37381 -252.0652,120.37381 -102.399,0 -193.54768,-42.75866 -252.04088,-120.31824 -18.49442,-0.40434 -35.279267,-2.01023 -48.496623,-4.42526 z"
       style="color:#000000;fill:#000000;fill-opacity:1;fill-rule:nonzero;stroke:#ff0000;stroke-width:0;stroke-miterlimit:4;stroke-dasharray:none;marker:none;visibility:visible;display:inline;overflow:visible;enable-background:accumulate" />
  </g>
</svg>
